<?xml version="1.0" encoding="UTF-8" standalone="no"?>
<svg
   xmlns:dc="http://purl.org/dc/elements/1.1/"
   xmlns:cc="http://creativecommons.org/ns#"
   xmlns:rdf="http://www.w3.org/1999/02/22-rdf-syntax-ns#"
   xmlns:svg="http://www.w3.org/2000/svg"
   xmlns="http://www.w3.org/2000/svg"
   viewBox="0 0 2000 2470"
   height="2470"
   width="2000"
   version="1.1"
   id="svg3426">
  <metadata
     id="metadata3432">
    <rdf:RDF>
      <cc:Work
         rdf:about="">
        <dc:format>image/svg+xml</dc:format>
        <dc:type
           rdf:resource="http://purl.org/dc/dcmitype/StillImage" />
        <dc:title></dc:title>
      </cc:Work>
    </rdf:RDF>
  </metadata>
  <defs
     id="defs3430" />
  <path
     id="path4285"
     d="m 482.66291,1616.1106 c -96.1503,-203.0458 -117.3442,-405.7738 -61.0398,-583.8692 32.5462,-102.94643 85.2801,-192.30395 155.0939,-262.80639 27.6546,-27.92738 43.4544,-38.14879 103.8956,-67.21352 39.2047,-18.85259 72.4091,-33.14944 73.7877,-31.77084 1.3787,1.37859 -13.5103,19.85984 -33.0866,41.06935 -42.7493,46.31611 -83.3164,97.19935 -105.5822,132.43185 -16.5013,26.111 -22.2345,61.44622 -11.0875,68.33542 7.8555,4.855 32.7572,-14.8528 49.7499,-39.37332 l 14.9894,-21.6296 9.649,18.8079 c 12.8576,25.06192 45.4158,47.82502 86.598,60.54482 107.67132,33.2563 330.11689,-15.6148 449.26999,-98.70422 38.3673,-26.7548 62.4876,-46.81789 59.3339,-49.35357 -1.3266,-1.06665 -10.9154,-7.04777 -21.3084,-13.29137 -10.393,-6.24361 -24.9472,-20.19309 -32.3424,-30.99882 -37.5402,-54.85237 -15.0327,-104.37215 57.6616,-126.86417 28.8098,-8.91387 28.8587,-8.96463 11.9071,-12.35496 -30.3169,-6.06336 -44.6325,-3.67778 -68.3276,11.38622 -22.6122,14.37561 -30.6178,24.92193 -41.2799,54.38097 l -5.1483,14.22454 -38.1769,-18.13017 c -113.0453,-53.68498 -258.53024,-59.5349 -380.85259,-15.31405 -80.1307,28.96812 -154.9351,72.25807 -218.8496,126.65008 -73.0063,62.1293 -151.8103,220.81042 -174.3928,351.16035 -8.8701,51.2002 -7.2649,162.6134 3.1376,217.7577 16.5581,87.7759 51.6025,180.3429 99.6248,263.1506 10.4321,17.9886 17.5155,32.7066 15.741,32.7066 -8.6899,0 -49.0481,-38.2023 -77.3973,-73.2627 -43.5451,-53.8536 -85.1068,-119.1162 -116.1254,-182.3467 -14.3379,-29.2273 -27.8336,-53.1406 -29.9904,-53.1406 -2.1568,0 -5.1437,5.8872 -6.6376,13.0826 -1.494,7.1955 -4.0857,19.5562 -5.7596,27.4684 l -3.0432,14.3857 -7.0944,-13.0775 c -14.3423,-26.4381 -19.5684,-80.152 -12.8463,-132.0332 9.6622,-74.5721 47.6556,-202.6617 85.4114,-287.95323 12.0634,-27.2515 12.3854,-29.6199 3.3712,-24.7956 -5.4814,2.9335 -25.7651,21.1326 -45.075,40.4424 l -35.1087,35.10883 3.1861,-34.11933 c 8.0307,-85.99962 72.256,-194.64421 185.4195,-313.65912 l 50.0813,-52.67093 -26.6413,10.50102 c -14.6527,5.77556 -35.2875,14.11364 -45.8552,18.52913 -22.8084,9.52991 -23.1689,9.56994 -23.1689,2.57084 0,-10.14693 49.5195,-58.87208 79.9608,-78.67811 43.232,-28.12809 100.8023,-50.76971 179.6142,-70.6398 68.763,-17.33655 181.44217,-33.27619 240.18139,-33.97615 60.16176,-0.7169 56.0096,-7.98657 -10.46611,-18.32409 l -62.79658,-9.7654 41.86438,-4.1067 c 133.92605,-13.13753 217.76851,-30.51068 275.36601,-57.05905 34.0148,-15.67842 35.1981,-15.84833 44.69,-6.41675 32.1095,31.90508 69.6681,57.09144 96.6955,64.84281 13.0647,3.74691 9.8167,-1.47443 -25.5864,-41.13063 -50.9453,-57.06567 -90.0476,-109.96521 -119.7011,-161.93754 -24.0146,-42.08948 -56.0431,-118.953274 -53.1648,-127.588084 0.9107,-2.73211 20.4572,23.945804 43.4367,59.284234 71.9349,110.62308 190.0716,219.1162 271.9506,249.75109 20.8939,7.81738 41.4476,10.94717 71.8914,10.94717 32.7053,0 47.9545,2.57636 65.4882,11.06425 27.4812,13.30345 35.744,25.38543 39.9147,58.36386 1.7353,13.72094 6.8833,32.15672 11.44,40.96839 8.0648,15.59568 34.1159,30.77723 53.2108,31.00913 5.3356,0.0648 12.6846,7.3418 17.1755,17.00741 7.3987,15.92372 9.5028,16.92284 36.6296,17.39328 26.8037,0.46485 29.4712,1.68267 38.8467,17.73577 5.5367,9.48014 20.4218,26.78165 33.0781,38.44774 22.1055,20.37625 52.2086,64.26694 47.386,69.08956 -1.2775,1.27755 -9.8306,-7.69739 -19.0068,-19.9443 -9.1762,-12.24686 -21.1628,-25.06412 -26.6369,-28.48282 -9.1768,-5.73092 -10.2412,-4.09183 -13.6474,21.0162 -4.8276,35.58568 -20.9393,78.34212 -33.9623,90.12784 -10.2342,9.26176 -10.3565,8.89953 -10.3565,-30.68651 0,-23.61582 -2.1805,-40.05895 -5.3123,-40.05895 -2.9218,0 -17.6397,6.8274 -32.7066,15.17203 -15.0668,8.34457 -33.2814,16.85748 -40.4768,18.91758 -12.5989,3.60709 -12.4537,3.0852 3.9248,-14.11291 9.354,-9.82212 17.0074,-21.92565 17.0074,-26.89668 0,-22.09975 -67.6729,-24.51925 -102.9892,-3.68213 -10.2795,6.06505 -19.359,10.34297 -20.1767,9.50652 -0.8177,-0.83651 -3.6036,-9.76299 -6.1911,-19.83662 -3.2438,-12.62913 -8.0979,-18.81307 -15.6343,-19.91777 -14.7592,-2.1634 -48.0204,12.23607 -51.9564,22.49291 -6.4225,16.73692 32.991,44.52232 63.1547,44.52232 7.1877,0 21.3926,7.30859 31.5664,16.24125 17.143,15.05172 18.4978,15.43498 18.4978,5.23305 0,-21.13755 9.7015,-10.67161 32.2408,34.781 12.4884,25.18404 23.4284,46.90384 24.3112,48.26634 4.1302,6.3746 30.7477,-15.2502 38.6998,-31.4409 l 8.9065,-18.1337 0.2512,24.857 c 0.259,25.6319 3.6237,29.6037 15.5153,18.3157 10.8284,-10.2786 2.2466,40.7662 -11.6558,69.33032 -11.7838,24.2115 -39.4363,47.105 -56.8965,47.105 -8.1429,0 -8.9255,-1.7766 -4.4592,-10.1221 8.6634,-16.1876 6.4385,-36.0605 -4.7049,-42.0243 -5.5671,-2.9794 -35.5918,-5.4566 -66.7214,-5.5048 l -56.5993,-0.088 28.2539,-14.30322 c 50.3352,-25.4816 48.2331,-37.0449 -12.5548,-69.0589 -23.4457,-12.34771 -35.5096,-15.76824 -47.6307,-13.50495 -9.8605,1.8412 -22.1857,-0.0738 -31.3983,-4.87809 -36.7341,-19.15695 -81.3293,-5.40962 -137.2922,42.32304 -110.3297,94.10392 -244.7649,145.67052 -440.42659,168.93842 -47.4899,5.6475 -92.8816,12.75673 -100.8703,15.79823 -35.7857,13.6246 -18.3677,37.8053 51.1563,71.0186 50.07571,23.9223 73.4517,30.8213 133.09487,39.2802 88.27776,12.52 230.24812,-20.2723 350.97082,-81.0672 20.7325,-10.4408 38.823,-17.8556 40.2012,-16.4774 1.3782,1.3782 -15.7301,14.8113 -38.0185,29.8513 -158.6753,107.0729 -361.93489,127.0053 -580.65969,56.9415 -59.2617,-18.9832 -68.8873,-19.2419 -76.7154,-2.0612 -5.28,11.5885 -3.4109,18.8247 14.5031,56.1466 57.9878,120.8119 122.2596,188.3258 215.97945,226.8746 37.14895,15.28 16.87528,17.3845 -25.85345,2.6837 -114.4212,-39.3665 -200.1893,-123.5762 -256.5719,-251.9101 l -14.9442,-34.0149 3.1524,23.5488 c 5.2196,38.9916 32.603,115.5113 54.7074,152.8735 28.4086,48.0178 74.923,105.5333 113.771,140.6785 17.8025,16.1057 32.3681,32.0011 32.3681,35.3231 0,3.9742 -12.2043,6.0401 -35.6815,6.0401 -49.7808,0 -86.1114,11.9807 -113.8412,37.5411 -20.3464,18.7547 -25.0286,27.7241 -41.4759,79.4537 -10.1971,32.0718 -23.0331,66.5545 -28.5243,76.6281 l -9.9841,18.3157 -28.4977,-60.1801 z M 1525.674,517.34032 c -6.5167,-22.72266 -8.3748,-24.60234 -32.7615,-33.14191 -12.2289,-4.28223 -26.7446,-9.61372 -32.2572,-11.84774 -8.0125,-3.24715 -6.6822,0.79354 6.6325,20.14581 19.2772,28.01847 34.9711,40.37255 51.2869,40.37255 10.3202,0 11.0777,-1.65688 7.0993,-15.52871 z"
     style="fill:#ff0000;fill-opacity:1" />
  <path
     id="path4287"
     d="m 963.94144,2212.2694 c -15.3144,-5.0143 -24.2021,-13.694 -41.54221,-40.5699 -6.7649,-10.4851 -15.65236,-22.4164 -19.7499,-26.5139 -14.83733,-14.8373 -37.22959,-22.0339 -93.71802,-30.1196 -56.5847,-8.0995 -63.6507,-14.3824 -75.3981,-67.0423 -2.8899,-12.9545 -7.1981,-26.2783 -10.5299,-32.565 -7.8295,-14.7736 -28.6482,-33.9665 -59.703,-55.0406 -33.1903,-22.5233 -54.3496,-42.5026 -62.4596,-58.9763 -5.7081,-11.5949 -5.9948,-13.1967 -5.9948,-33.4931 0,-20.0376 0.4307,-22.5345 7.1836,-41.6419 6.8684,-19.4342 7.1367,-21.0515 6.1129,-36.8538 -1.2886,-19.8895 -8.0814,-35.6472 -20.0141,-46.4277 -14.8201,-13.389 -46.4132,-24.8652 -68.6766,-24.9465 -4.8335,-0.018 -8.7882,-0.4067 -8.7882,-0.8645 0,-0.4578 2.3845,-4.4125 5.2989,-8.7883 8.0753,-12.1246 23.4829,-41.5348 29.8557,-56.989 3.1341,-7.6004 10.7142,-30.0661 16.8445,-49.9238 20.2657,-65.6462 34.8568,-88.7832 65.3956,-103.6974 28.5437,-13.9398 68.4863,-23.039 95.437,-21.7413 15.0619,0.7253 19.8771,1.7753 30.1183,6.5678 29.5966,13.8499 45.7276,44.2043 45.8425,86.2636 0.1362,49.8543 -25.694,90.8737 -65.9973,104.8062 -24.1011,8.3315 -55.135,6.4539 -73.2785,-4.4334 -12.6805,-7.6092 -19.5031,-17.5612 -22.0741,-32.1993 -1.9043,-10.8427 -1.0501,-24.4921 1.5329,-24.4921 0.6307,0 6.3717,5.0174 12.7579,11.1497 6.3861,6.1323 14.5477,12.3766 18.1368,13.8762 13.8692,5.795 27.8838,1.5482 41.5233,-12.5827 9.3168,-9.6524 9.2536,-11.4983 -0.9105,-26.5992 -10.5268,-15.6398 -26.6161,-24.6974 -43.8706,-24.6974 -15.4065,0 -36.7716,11.4391 -54.9743,29.4338 -17.8204,17.6169 -24.1895,29.525 -25.3637,47.4224 -1.0991,16.7519 3.6917,28.7185 16.1699,40.3905 41.9828,39.2699 122.2556,25.0081 185.1345,-32.8923 8.3909,-7.7265 15.7791,-14.0482 16.4181,-14.0482 0.6391,0 0.5907,6.8687 -0.1075,15.2639 -2.7191,32.6932 -1.6734,99.4885 2.1229,135.6047 6.4495,61.3568 23.5674,125.7532 44.62913,167.8917 26.68597,53.391 70.04449,89.9983 125.4133,105.8858 26.11506,7.4934 49.92916,10.2919 97.32646,11.4374 45.1269,1.0906 49.0826,0.8395 108.2279,-6.8686 62.689,-8.17 150.3921,-35.31 208.895,-64.6433 44.7238,-22.4244 75.9256,-44.5451 110.7037,-78.4841 21.6859,-21.1627 23.3064,-23.2868 38.1631,-50.0227 58.6529,-105.5508 82.8743,-153.5397 102.4043,-202.8894 44.8326,-113.2863 57.5279,-187.1238 42.3624,-246.3857 -14.4863,-56.6079 -50.7469,-84.615 -120.4699,-93.0491 -28.0147,-3.3888 -43.3057,-3.3353 -66.6059,0.2329 -10.1759,1.5584 -36.4019,3.2246 -58.2801,3.7027 l -39.7785,0.8694 -3.4,8.7272 c -2.4392,6.2611 -3.2105,12.1832 -2.7294,20.9574 0.8951,16.3233 6.1335,23.2548 24.1959,32.0164 19.5523,9.4844 35.908,12.4341 74.9042,13.5087 18.571,0.5118 33.7654,1.5156 33.7654,2.2305 0,3.1744 -53.3355,17.1652 -81.7547,21.4457 -37.9814,5.7208 -64.6233,5.9515 -91.3633,0.7912 -58.2235,-11.236 -105.4674,-37.4008 -141.0547,-78.1195 -22.3621,-25.5865 -49.5382,-69.2564 -53.2138,-85.5104 -0.9769,-4.3202 0.4455,-2.959 6.4179,6.1416 36.399,55.4644 70.0487,87.2843 108.3759,102.4825 13.9299,5.5237 16.3323,5.8935 38.8989,5.9867 20.8626,0.086 25.1969,-0.4297 32.6844,-3.8905 17.1648,-7.9335 19.5073,-20.8188 7.9713,-43.8485 -6.6854,-13.3464 -6.9889,-13.6425 -17.2548,-16.8375 -64.9155,-20.2032 -101.2506,-63.4439 -105.009,-124.9658 -1.1129,-18.2188 1.5053,-41.7898 3.5965,-32.3779 9.5096,42.7995 15.9915,59.1167 31.8806,80.2538 22.2319,29.575 62.4156,51.4248 106.1424,57.7146 19.6572,2.8276 77.6505,1.2201 100.9528,-2.7982 24.0789,-4.1522 118.4598,-12.1167 143.3876,-12.1 13.6599,0.01 27.3912,1.276 38.3563,3.5388 47.0027,9.6995 64.5033,28.451 96.612,103.5173 17.891,41.8273 17.9129,52.6749 0.1741,86.2516 -16.1614,30.5905 -23.4921,53.3447 -26.8232,83.2573 -0.6799,6.1055 -4.1252,27.7524 -7.6561,48.1042 -13.8411,79.7776 -19.9778,95.5351 -50.7983,130.4365 -21.1132,23.9088 -25.4403,29.8055 -37.3359,50.8795 -20.632,36.5513 -37.233,83.3461 -50.3229,141.85 -12.9247,57.7659 -18.5446,71.3683 -36.9442,89.4203 -17.8967,17.5586 -40.3235,28.0036 -89.6117,41.7354 -78.8542,21.969 -94.0153,30.2 -168.6794,91.5769 -34.5344,28.3886 -44.3205,34.8686 -62.7065,41.5217 -27.5657,9.9748 -42.2332,9.1456 -85.7255,-4.846 -22.372,-7.1973 -29.3825,-8.6405 -45.8669,-9.4422 -23.1311,-1.1251 -50.2221,3.3878 -82.0243,13.664 -21.00366,6.7869 -35.93696,8.9741 -43.76686,6.4104 z"
     style="fill:#ff0000;fill-opacity:1" />
  <path
     id="path4289"
     d="m 447.10291,1903.6209 c 4.9174,-37.9719 25.5923,-87.4578 48.0411,-114.9881 9.0764,-11.1308 15.4601,-16.5422 32.9812,-27.9576 11.3206,-7.3757 12.7049,-7.8135 20.9201,-6.6169 11.7102,1.7057 23.2205,8.6316 28.5255,17.1641 3.8149,6.1357 4.2797,8.9694 3.9482,24.0684 -0.6381,29.0719 -3.9636,32.7286 -48.5475,53.3825 -33.7616,15.6404 -49.2024,24.1356 -62.5616,34.4203 -9.8716,7.5997 -20.8018,20.657 -20.8018,24.85 0,1.2659 -0.8226,2.8099 -1.8279,3.4313 -1.1646,0.7197 -1.4104,-2.0937 -0.6773,-7.754 z"
     style="fill:#ff0000;fill-opacity:1" />
  <path
     id="path4291"
     d="m 593.92081,2133.9774 c 0,-9.6528 9.6619,-38.1603 20.2591,-59.7744 12.6863,-25.875 26.232,-43.2291 43.0204,-55.1159 21.6936,-15.3597 29.131,-17.2177 43.1048,-10.7683 15.3584,7.0883 19.7145,16.4919 17.4961,37.7692 -1.9603,18.8015 -5.1786,21.416 -49.8739,40.5171 -41.1761,17.5972 -59.5067,29.2891 -68.736,43.8422 -4.7567,7.5006 -5.2705,7.8447 -5.2705,3.5301 z"
     style="fill:#ff0000;fill-opacity:1" />
  <path
     id="path4293"
     d="m 790.17591,2274.9457 c -0.446,-50.3442 23.12828,-109.1903 51.96994,-129.7274 7.75172,-5.5197 17.53525,-7.349 27.43668,-5.13 13.5241,3.0308 20.74956,11.9177 24.11413,29.659 3.7323,19.6803 -3.09796,28.8195 -39.8537,53.3259 -37.97915,25.3221 -54.57475,41.2946 -60.94195,58.654 l -2.6022,7.0947 -0.1229,-13.8762 z"
     style="fill:#ff0000;fill-opacity:1" />
  <path
     id="path4295"
     d="m 1038.8886,2341.5617 c -2.7396,-12.4606 -1.6941,-59.282 1.6345,-73.2013 3.5211,-14.7242 12.0008,-32.6714 21.5415,-45.5921 12.2032,-16.5267 28.8046,-17.511 43.7232,-2.5923 9.0599,9.0599 11.4959,17.9077 8.1241,29.5084 -1.812,6.2341 -7.5886,12.9234 -30.6022,35.4372 -31.0612,30.3866 -36.5177,37.5079 -40.4026,52.7296 l -2.597,10.1759 -1.4215,-6.4654 z"
     style="fill:#ff0000;fill-opacity:1" />
  <path
     id="path4297"
     d="m 1421.7036,2220.3981 c -20.4575,-10.1944 -47.5182,-37.4532 -57.5634,-57.9848 -3.0594,-6.2532 -5.2867,-14.358 -5.7657,-20.9805 -0.7619,-10.5327 -0.6033,-10.9684 6.6245,-18.1961 6.431,-6.431 8.4928,-7.4051 15.6748,-7.4051 10.4416,0 19.5954,5.8285 24.3304,15.4917 1.918,3.9144 4.9473,17.2246 6.7318,29.5782 4.1969,29.0552 6.2833,36.6053 14.0653,50.8977 3.5292,6.4818 6.1084,12.0934 5.7316,12.4703 -0.3769,0.3769 -4.8001,-1.3653 -9.8293,-3.8714 z"
     style="fill:#ff0000;fill-opacity:1" />
  <path
     id="path4299"
     d="m 1642.5174,1863.427 c -15.623,-5.5759 -21.2694,-12.6472 -19.1442,-23.9755 0.8196,-4.3689 3.5068,-8.4557 8.0957,-12.3122 6.2791,-5.277 7.7144,-5.691 16.719,-4.8225 6.582,0.6348 16.6677,4.1723 30.3975,10.6617 15.8482,7.4907 23.3273,9.9628 32.7035,10.8098 l 12.1563,1.098 -10.1759,5.4469 c -15.7431,8.4269 -18.898,9.6046 -34.2105,12.7713 -17.1486,3.5464 -27.2584,3.6356 -36.5414,0.3225 z"
     style="fill:#ff0000;fill-opacity:1" />
  <path
     id="path4301"
     d="m 1752.3333,1561.2453 c -5.1603,-4.2843 -6.7817,-13.2689 -3.2554,-18.0391 2.4705,-3.3419 5.4832,-3.7899 31.1051,-4.6254 15.6033,-0.5088 28.7291,-0.7044 29.1683,-0.4348 2.3904,1.4674 -13.6567,14.4714 -24.6368,19.9647 -14.5234,7.2661 -26.0601,8.3829 -32.3812,3.1346 z"
     style="fill:#ff0000;fill-opacity:1" />
  <path
     id="path4303"
     d="m 1757.2107,1375.6183 c -2.057,-1.1981 -3.2378,-4.1308 -3.2378,-8.0416 0,-5.5888 0.8096,-6.4982 8.7883,-9.8722 4.8335,-2.044 10.5147,-4.2375 12.6249,-4.8744 2.1102,-0.6369 5.6487,-2.8461 7.8632,-4.9093 l 4.0265,-3.7512 0,3.8643 c 0,6.1147 -4.586,13.4212 -13.6928,21.8155 -8.7995,8.1111 -11.0123,8.8908 -16.3723,5.7689 z"
     style="fill:#ff0000;fill-opacity:1" />
  <path
     id="path4305"
     d="m 1383.0152,1293.2309 c -27.8736,-4.0743 -50.4076,-12.0835 -72.184,-25.6561 -13.4827,-8.4034 -37.9007,-30.6325 -37.9007,-34.5032 0,-1.0324 6.0362,1.4402 13.4137,5.4945 26.5423,14.5864 51.8929,17.6907 77.4247,9.4812 13.7716,-4.4282 36.3842,-19.1051 42.7354,-27.7379 9.9871,-13.5747 4.435,-30.1465 -14.964,-44.6644 -24.5126,-18.3448 -79.2425,-42.2745 -128.6371,-56.2442 -15.8937,-4.495 -17.7921,-5.4409 -14.1663,-7.0588 6.4235,-2.8662 57.6765,1.6544 82.9034,7.3124 39.3588,8.8274 74.771,23.9765 105.9547,45.3265 22.328,15.287 34.0362,26.2893 56.5214,53.1137 25.8092,30.7898 36.6477,46.6756 40.6287,59.5485 1.2353,3.9943 0.6074,3.7092 -5.0564,-2.2962 -8.992,-9.5343 -22.5673,-15.1836 -49.5399,-20.6158 -42.1192,-8.4828 -57.4964,-8.5029 -65.9131,-0.086 -5.7438,5.7439 -5.656,13.7969 0.2898,26.5696 2.5558,5.4903 4.3349,10.2942 3.9537,10.6755 -1.1433,1.1432 -29.4848,2.2149 -35.464,1.3409 z"
     style="fill:#ff0000;fill-opacity:1" />
  <path
     id="path4307"
     d="m 836.60958,1869.76 c -8.16382,-31.1206 -10.91302,-47.8686 -15.96641,-97.2666 -4.12243,-40.2977 -3.55708,-76.6487 1.19209,-76.6487 3.51082,0 10.64999,20.0394 13.5031,37.9027 4.14568,25.9562 9.48613,32.4596 24.40176,29.7159 15.1623,-2.789 42.49317,-41.2593 46.01976,-64.7762 2.2204,-14.8068 0.0627,-20.4105 -9.75553,-25.3355 -12.64321,-6.3422 -16.05607,-12.0511 -16.7492,-28.0177 -0.52412,-12.0735 -0.0461,-14.2312 5.10927,-23.0596 9.10263,-15.5883 22.88737,-24.0729 53.68667,-33.0448 14.68805,-4.2786 56.87185,-11.045 58.52875,-9.3881 0.4096,0.4096 -4.8906,2.1159 -11.778,3.7919 -12.8361,3.1235 -35.4862,13.456 -42.17202,19.238 -12.25656,10.5997 -17.77752,26.3382 -11.16449,31.8266 1.46577,1.2164 8.48432,3.0755 15.59677,4.1311 13.93604,2.0684 20.45434,6.1906 20.78764,13.1464 0.9313,19.4321 -10.2046,48.2704 -33.34845,86.362 -9.71289,15.9861 -11.08777,21.822 -4.88331,20.7281 6.57944,-1.16 48.27046,-32.617 63.45716,-47.8801 28.83636,-28.9815 32.62786,-38.4688 18.98246,-47.499 -4.0704,-2.6936 -7.4007,-6.1355 -7.4007,-7.6485 0,-4.5571 13.9462,-16.6416 27.2614,-23.6221 38.3239,-20.0914 87.7383,-17.3138 110.722,6.2236 3.8942,3.988 6.5944,7.2509 6.0004,7.2509 -0.5939,0 -9.2967,-3.0282 -19.3396,-6.7292 -14.3651,-5.2939 -21.1532,-6.7738 -31.8249,-6.9381 -12.6884,-0.1954 -13.8542,0.1265 -18.0391,4.9822 -3.4424,3.9942 -4.474,7.3228 -4.474,14.436 0,47.486 -35.9686,95.177 -87.88266,116.5241 -23.5602,9.688 -37.0918,22.7444 -35.7423,34.4871 l 0.5892,5.1271 28.6775,1.6717 c 44.24186,2.5791 55.79886,-0.3684 77.08606,-19.6597 6.6753,-6.0494 15.7384,-12.5427 20.1402,-14.4296 40.1024,-17.1899 97.9372,-1.924 124.764,32.9324 3.3507,4.3534 5.6955,8.312 5.2107,8.7967 -0.4847,0.4847 -6.2198,-2.5825 -12.7447,-6.816 -22.647,-14.6939 -34.2697,-19.1525 -49.7918,-19.1003 -11.3274,0.038 -15.5822,0.9387 -23.1637,4.9033 -11.2733,5.8951 -23.6762,18.8309 -35.0123,36.5163 -10.8342,16.9025 -13.9429,18.3749 -29.7576,14.094 -16.0594,-4.347 -25.5271,-3.1843 -48.0534,5.9014 -20.01196,8.0716 -33.89246,11.6198 -45.45676,11.6198 -4.0405,0 -20.02652,-2.6646 -35.52455,-5.9213 -33.93579,-7.1312 -62.0287,-8.2698 -70.30808,-2.8495 -7.65969,5.0145 -11.21365,13.6619 -12.34926,30.0477 l -1.02579,14.8013 -8.00828,-30.5277 z"
     style="fill:#ff0000;fill-opacity:1" />
  <path
     id="path4309"
     d="m 845.54294,1070.3938 c -44.68563,-5.2535 -77.17183,-20.3786 -70.50913,-32.8279 4.0342,-7.5381 11.659,-8.2349 94.38145,-8.6263 92.24908,-0.4365 123.01818,-2.7168 187.04624,-13.8625 49.8027,-8.6693 80.6782,-16.36663 123.7897,-30.86083 94.3416,-31.718 174.0998,-77.8262 232.8292,-134.59852 8.3951,-8.11537 15.2638,-14.09864 15.2638,-13.29617 0,1.77389 -11.2233,15.56081 -28.2977,34.76146 -13.4431,15.11723 -60.5063,56.24883 -84.6684,73.99723 -55.5817,40.8279 -140.4787,80.35183 -211.9311,98.66483 -33.876,8.6823 -100.2247,21.0097 -131.16786,24.3706 -30.13647,3.2733 -106.58327,4.6475 -126.7362,2.2781 z"
     style="fill:#ff0000;fill-opacity:1" />
  <path
     id="path4311"
     d="m 926.95011,1283.7867 c -56.16915,-6.3291 -92.71266,-14.6143 -130.4365,-29.5731 -47.7993,-18.954 -94.7773,-50.0681 -119.7799,-79.3316 -27.4143,-32.0863 -31.6314,-52.7799 -9.533,-46.7794 9.9022,2.6888 17.1088,8.5402 30.1026,24.4419 17.6183,21.5613 55.5674,49.1654 94.286,68.5835 34.38994,17.2472 70.12707,28.0738 127.96015,38.7658 37.75298,6.9796 66.29108,9.192 120.56774,9.3473 27.135,0.078 49.1982,0.2788 49.0293,0.4472 -0.1689,0.1684 -9.4655,2.0108 -20.659,4.0944 -45.0749,8.3901 -113.15476,13.2021 -141.53739,10.004 z"
     style="fill:#ff0000;fill-opacity:1" />
  <path
     id="path4313"
     d="m 1070.3377,360.81151 c -16.5109,-11.10047 -48.2744,-46.08092 -67.9129,-74.79097 -16.01076,-23.40657 -48.58536,-77.46046 -47.39656,-78.64928 0.5193,-0.5193 10.8575,8.06555 22.9738,19.07743 40.25086,36.58217 101.22406,86.3281 142.89056,116.57955 l 4.3009,3.12259 -16.3737,8.69993 c -21.4758,11.41084 -28.7091,12.53125 -38.4821,5.96075 z"
     style="fill:#ff0000;fill-opacity:1" />
  <path
     id="path4315"
     d="m 270.76891,821.58363 c 0.2509,-18.7118 -0.2367,-23.08128 -3.058,-27.40589 -5.0701,-7.7717 -17.6636,-14.85919 -41.6145,-23.42021 -44.4834,-15.90017 -55.0349,-23.1077 -77.1858,-52.72396 -10.8926,-14.56374 -11.3077,-14.88419 -25.8639,-19.96566 -8.1365,-2.84039 -16.2529,-6.61234 -18.0364,-8.38207 -2.354,-2.33589 -3.7251,-8.27284 -5.0027,-21.66301 -3.8451,-40.29999 -13.5645,-56.19556 -39.1043,-63.95303 -9.0972,-2.76321 -18.576295,-4.07447 -30.552495,-4.22639 -9.5497,-0.12115 -17.3672,-0.78487 -17.3722,-1.47495 -0.022,-3.01717 22.3644,-9.37878 36.164995,-10.27729 23.6314,-1.53858 47.0549,6.98283 70.5211,25.65539 14.4471,11.49591 21.5442,22.21842 27.3887,41.3797 3.9736,13.02732 5.8801,16.34576 13.469,23.44428 4.862,4.54792 12.9908,10.62393 18.0639,13.50227 5.073,2.87833 15.0584,8.78984 22.1897,13.13671 16.6784,10.16631 22.138,11.62583 24.8103,6.63253 5.1688,-9.6579 0.3038,-26.94584 -12.2027,-43.36258 -17.3767,-22.80969 -25.9352,-43.59948 -30.9679,-75.22536 -3.6746,-23.0918 -1.5444,-36.37343 9.2908,-57.92635 3.4537,-6.86996 6.2794,-14.83178 6.2794,-17.69294 0,-5.4039 -6.2484,-12.66801 -14.6015,-16.97507 -6.4348,-3.31789 -25.8172,-8.6274 -37.3757,-10.23845 -13.5106,-1.88313 -7.4072,-4.27831 11.3475,-4.45313 16.7844,-0.15646 32.459,3.64975 45.3104,11.00253 20.8921,11.95326 46.967,47.43201 47.0833,64.06362 0.045,6.44396 -2.3444,8.06114 -11.9102,8.06114 -8.3986,0 -10.9497,3.84735 -10.6292,16.02998 0.4589,17.44183 8.8075,44.50005 25.3095,82.02865 12.9861,29.53311 15.7597,27.80982 15.8088,-9.82255 0.052,-39.71468 3.4904,-61.57016 11.5827,-73.61787 5.283,-7.86535 11.5711,-8.83981 23.6134,-3.65935 16.7792,7.2182 23.9724,3.36015 23.9724,-12.85743 0,-11.95755 -7.0898,-25.01523 -22.5999,-41.62329 -7.172,-7.6797 -12.6474,-14.35571 -12.1675,-14.83558 1.8382,-1.83819 31.1937,21.89765 44.2346,35.76658 7.5129,7.98993 16.1576,19.46364 19.2104,25.49712 4.803,9.49262 5.5504,12.98152 5.5504,25.90682 0,12.65921 -0.6644,15.90363 -4.3571,21.27688 -7.4065,10.77702 -12.81,13.71425 -25.6992,13.96934 -6.3551,0.12577 -12.7163,1.1927 -14.136,2.37095 -1.4197,1.17826 -4.5282,6.48708 -6.9077,11.79738 -3.6877,8.22964 -4.3265,12.65981 -4.3268,30.0069 -4e-4,25.25722 4.0343,40.96504 10.9694,42.70562 7.2298,1.81457 17.0661,-2.57121 38.5434,-17.18544 11.0956,-7.55001 20.5425,-13.35862 20.9931,-12.90799 0.4506,0.4506 -7.805,9.86951 -18.3459,20.93091 -33.5973,35.25644 -72.2478,91.48156 -83.7767,121.87058 l -4.2115,11.10097 0.2986,-22.26101 z"
     style="fill:#ff0000;fill-opacity:1" />
</svg>
