<?xml version="1.0" encoding="UTF-8" standalone="no"?>
<!-- Created with Inkscape (http://www.inkscape.org/) -->

<svg
   xmlns:dc="http://purl.org/dc/elements/1.1/"
   xmlns:cc="http://creativecommons.org/ns#"
   xmlns:rdf="http://www.w3.org/1999/02/22-rdf-syntax-ns#"
   xmlns:svg="http://www.w3.org/2000/svg"
   xmlns="http://www.w3.org/2000/svg"
   xmlns:sodipodi="http://sodipodi.sourceforge.net/DTD/sodipodi-0.dtd"
   xmlns:inkscape="http://www.inkscape.org/namespaces/inkscape"
   width="210mm"
   height="297mm"
   viewBox="0 0 744.09448819 1052.3622047"
   id="svg4825"
   version="1.1"
   inkscape:version="0.91 r13725"
   sodipodi:docname="MSIDragonHand.svg">
  <defs
     id="defs4827" />
  <sodipodi:namedview
     id="base"
     pagecolor="#ffffff"
     bordercolor="#666666"
     borderopacity="1.0"
     inkscape:pageopacity="0.0"
     inkscape:pageshadow="2"
     inkscape:zoom="1.979899"
     inkscape:cx="349.43042"
     inkscape:cy="667.24985"
     inkscape:document-units="px"
     inkscape:current-layer="layer1"
     showgrid="false"
     inkscape:window-width="1680"
     inkscape:window-height="987"
     inkscape:window-x="-8"
     inkscape:window-y="-8"
     inkscape:window-maximized="1" />
  <metadata
     id="metadata4830">
    <rdf:RDF>
      <cc:Work
         rdf:about="">
        <dc:format>image/svg+xml</dc:format>
        <dc:type
           rdf:resource="http://purl.org/dc/dcmitype/StillImage" />
        <dc:title></dc:title>
      </cc:Work>
    </rdf:RDF>
  </metadata>
  <g
     inkscape:label="Laag 1"
     inkscape:groupmode="layer"
     id="layer1">
    <path
       style="fill:#ff0000;fill-opacity:1"
       d="m 298.02076,416.47135 c -8.16382,-31.1206 -10.91302,-47.8686 -15.96641,-97.2666 -4.12243,-40.2977 -3.55708,-76.6487 1.19209,-76.6487 3.51082,0 10.64999,20.0394 13.5031,37.9027 4.14568,25.9562 9.48613,32.4596 24.40176,29.7159 15.1623,-2.789 42.49317,-41.2593 46.01976,-64.7762 2.2204,-14.8068 0.0627,-20.4105 -9.75553,-25.3355 -12.64321,-6.3422 -16.05607,-12.0511 -16.7492,-28.0177 -0.52412,-12.0735 -0.0461,-14.2312 5.10927,-23.0596 9.10263,-15.5883 22.88737,-24.0729 53.68666,-33.0448 14.68805,-4.2786 56.87185,-11.045 58.52875,-9.3881 0.4096,0.4096 -4.8906,2.1159 -11.778,3.7919 -12.8361,3.1235 -35.4862,13.456 -42.17202,19.238 -12.25656,10.5997 -17.77752,26.3382 -11.16449,31.8266 1.46577,1.2164 8.48432,3.0755 15.59677,4.1311 13.93604,2.0684 20.45434,6.1906 20.78764,13.1464 0.9313,19.4321 -10.2046,48.2704 -33.34845,86.362 -9.71289,15.9861 -11.08777,21.822 -4.88331,20.7281 6.57944,-1.16 48.27046,-32.617 63.45716,-47.8801 28.83636,-28.9815 32.62786,-38.4688 18.98246,-47.499 -4.0704,-2.6936 -7.4007,-6.1355 -7.4007,-7.6485 0,-4.5571 13.9462,-16.6416 27.2614,-23.6221 38.3239,-20.0914 87.7383,-17.3138 110.722,6.2236 3.8942,3.988 6.5944,7.2509 6.0004,7.2509 -0.5939,0 -9.2967,-3.0282 -19.3396,-6.7292 -14.3651,-5.2939 -21.1532,-6.7738 -31.8249,-6.9381 -12.6884,-0.1954 -13.8542,0.1265 -18.0391,4.9822 -3.4424,3.9942 -4.474,7.3228 -4.474,14.436 0,47.486 -35.9686,95.177 -87.88266,116.5241 -23.5602,9.688 -37.0918,22.7444 -35.7423,34.4871 l 0.5892,5.1271 28.6775,1.6717 c 44.24186,2.5791 55.79886,-0.3684 77.08606,-19.6597 6.6753,-6.0494 15.7384,-12.5427 20.1402,-14.4296 40.1024,-17.1899 97.9372,-1.924 124.764,32.9324 3.3507,4.3534 5.6955,8.312 5.2107,8.7967 -0.4847,0.4847 -6.2198,-2.5825 -12.7447,-6.816 -22.647,-14.6939 -34.2697,-19.1525 -49.7918,-19.1003 -11.3274,0.038 -15.5822,0.9387 -23.1637,4.9033 -11.2733,5.8951 -23.6762,18.8309 -35.0123,36.5163 -10.8342,16.9025 -13.9429,18.3749 -29.7576,14.094 -16.0594,-4.347 -25.5271,-3.1843 -48.0534,5.9014 -20.01196,8.0716 -33.89246,11.6198 -45.45676,11.6198 -4.0405,0 -20.02652,-2.6646 -35.52455,-5.9213 -33.93578,-7.1312 -62.02869,-8.2698 -70.30807,-2.8495 -7.65969,5.0145 -11.21365,13.6619 -12.34926,30.0477 l -1.02579,14.8013 -8.00828,-30.5277 z"
       id="path4307"
       inkscape:connector-curvature="0" />
  </g>
</svg>
