<?xml version="1.0" encoding="UTF-8" standalone="no"?>
<!-- Created with Inkscape (http://www.inkscape.org/) -->

<svg
   xmlns:dc="http://purl.org/dc/elements/1.1/"
   xmlns:cc="http://creativecommons.org/ns#"
   xmlns:rdf="http://www.w3.org/1999/02/22-rdf-syntax-ns#"
   xmlns:svg="http://www.w3.org/2000/svg"
   xmlns="http://www.w3.org/2000/svg"
   xmlns:sodipodi="http://sodipodi.sourceforge.net/DTD/sodipodi-0.dtd"
   xmlns:inkscape="http://www.inkscape.org/namespaces/inkscape"
   width="210mm"
   height="297mm"
   viewBox="0 0 744.09448819 1052.3622047"
   id="svg4802"
   version="1.1"
   inkscape:version="0.91 r13725"
   sodipodi:docname="MSIDragonHead.svg">
  <defs
     id="defs4804" />
  <sodipodi:namedview
     id="base"
     pagecolor="#ffffff"
     bordercolor="#666666"
     borderopacity="1.0"
     inkscape:pageopacity="0.0"
     inkscape:pageshadow="2"
     inkscape:zoom="0.98994949"
     inkscape:cx="277.39688"
     inkscape:cy="718.6221"
     inkscape:document-units="px"
     inkscape:current-layer="layer1"
     showgrid="false"
     inkscape:window-width="1680"
     inkscape:window-height="987"
     inkscape:window-x="-8"
     inkscape:window-y="-8"
     inkscape:window-maximized="1" />
  <metadata
     id="metadata4807">
    <rdf:RDF>
      <cc:Work
         rdf:about="">
        <dc:format>image/svg+xml</dc:format>
        <dc:type
           rdf:resource="http://purl.org/dc/dcmitype/StillImage" />
        <dc:title></dc:title>
      </cc:Work>
    </rdf:RDF>
  </metadata>
  <g
     inkscape:label="Laag 1"
     inkscape:groupmode="layer"
     id="layer1">
    <path
       style="fill:#ff0000;fill-opacity:1"
       d="m 502.89918,651.22961 c -1.51096,-0.40508 -1.34497,-1.92952 0.71851,-6.59832 4.36178,-9.8689 3.66624,-19.97143 -1.69351,-24.59819 -3.87324,-3.3436 -13.61738,-4.31027 -48.61028,-4.82245 l -27.32563,-0.39996 11.66712,-6.09955 c 6.41692,-3.35475 13.46325,-7.28055 15.65851,-8.724 16.2057,-10.65572 13.93614,-18.04347 -9.86252,-32.10365 -9.78854,-5.78303 -18.66605,-10.19446 -24.66124,-12.25468 -4.42331,-1.52004 -5.41348,-1.61985 -14.73742,-1.4854 -10.8611,0.15661 -11.34197,0.0536 -22.47438,-4.81375 -11.74136,-5.13364 -25.586,-4.48571 -40.53294,1.89694 -12.82235,5.47541 -20.29355,6.74295 -26.33485,4.46786 -3.08816,-1.16295 -20.56299,-12.10143 -25.35045,-15.86819 -4.98394,-3.92143 -13.12901,-12.88384 -16.34742,-17.98789 -8.00162,-12.68974 -11.12221,-26.16008 -8.77368,-37.87272 1.55118,-7.7358 7.58222,-17.45739 14.5023,-23.37642 8.26696,-7.07109 16.23468,-11.16929 32.71922,-16.8291 13.34934,-4.58335 14.75689,-5.63785 9.16717,-6.8677 -12.58422,-2.76875 -22.62581,-3.32108 -29.14288,-1.60298 -5.18726,1.36753 -11.93105,4.77104 -18.70431,9.43985 -12.19374,8.40519 -16.67219,14.61109 -23.02052,31.90022 -1.82001,4.95656 -3.54288,9.09187 -3.8286,9.18959 -0.28572,0.0977 -7.15802,-3.05765 -15.27177,-7.01192 -16.39465,-7.98998 -27.57998,-12.67926 -40.5473,-16.99883 -7.67458,-2.55648 -24.34659,-7.09897 -30.31869,-8.26068 -1.18206,-0.22995 -2.58758,-0.54304 -3.12335,-0.69579 -0.86963,-0.2479 -1.01774,-4.28273 -1.38009,-37.59361 -0.22321,-20.52375 -0.58968,-53.8056 -0.81437,-73.9597 l -0.40853,-36.6438 2.40263,-0.64592 c 1.32145,-0.35526 4.7514,-1.2455 7.62213,-1.97832 17.77228,-4.53679 31.95047,-9.56925 49.73879,-17.65446 11.64023,-5.29072 15.86845,-6.91557 17.98272,-6.91042 1.96965,0.005 3.69928,1.33979 12.50415,9.65096 8.56311,8.08303 18.9896,16.50355 27.23469,21.99504 10.47112,6.97405 22.36538,12.7073 28.00926,13.50092 2.41731,0.33992 2.6937,0.24784 2.6937,-0.89748 0,-1.92486 -3.97156,-7.07715 -19.05794,-24.72372 -15.93895,-18.64384 -23.7453,-28.2135 -33.39057,-40.93288 -25.95985,-34.23358 -43.99826,-64.69716 -58.94668,-99.55018 -7.77079,-18.11813 -14.48694,-37.00422 -14.48694,-40.73816 0,-1.65041 0.0111,-1.65455 1.28676,-0.47037 2.25182,2.09063 10.88893,14.48703 23.88371,34.27887 23.50379,35.79783 39.37961,55.677 67.18298,84.12424 32.07434,32.81713 60.728,55.31701 87.87292,69.00096 19.93469,10.04922 29.53096,12.16418 59.77724,13.17459 9.33911,0.31199 18.77628,0.88342 20.97153,1.26986 9.39848,1.65445 21.32395,6.99569 28.16026,12.61255 6.59065,5.41503 10.71939,13.95184 12.33406,25.50264 1.66607,11.91846 4.70326,23.82257 7.54249,29.56231 4.24192,8.57554 17.67139,17.56595 28.894,19.34317 2.43763,0.38604 5.20145,0.98895 6.14182,1.33982 2.39962,0.89538 6.02195,5.33373 8.73628,10.7043 4.60366,9.10885 4.93108,9.26098 22.08556,10.26165 7.43754,0.43385 14.22923,1.07398 15.0926,1.42251 2.73169,1.10273 5.43442,3.90288 7.93812,8.22439 3.73987,6.45516 9.78547,13.8411 21.24964,25.96063 14.20183,15.01365 26.21738,31.7336 28.6092,39.81054 1.6415,5.54302 -0.91624,3.34915 -10.83802,-9.2961 -10.49268,-13.37291 -17.14687,-19.84402 -20.40543,-19.84402 -2.06834,0 -3.02634,2.70181 -4.53072,12.77814 -1.84174,12.33607 -3.41097,19.23204 -6.76871,29.74476 -4.27637,13.38901 -9.37146,23.79821 -14.04924,28.70264 -2.02118,2.11909 -4.0173,3.73577 -4.4359,3.59263 -1.32625,-0.45355 -1.59195,-3.00074 -1.66005,-15.91608 -0.0743,-14.08732 -0.88228,-25.44258 -2.06907,-29.07982 -0.69764,-2.13811 -1.00043,-2.40238 -2.6108,-2.27861 -1.0019,0.077 -10.25006,4.48922 -20.55151,9.8049 -17.15983,8.85474 -26.52343,12.90364 -28.37611,12.27008 -0.39447,-0.13489 1.77408,-3.0623 4.81895,-6.50536 9.18092,-10.38154 13.11981,-16.46511 13.11484,-20.25597 -0.006,-4.30401 -4.67017,-8.01403 -12.64502,-10.05746 -6.50602,-1.66706 -22.49121,-1.49163 -30.82945,0.33833 -8.18977,1.79737 -14.98551,4.36887 -21.08656,7.97912 -6.1493,3.63881 -10.41566,5.53166 -11.0242,4.89105 -0.25839,-0.27204 -1.48805,-4.03819 -2.73256,-8.36922 -1.24445,-4.33104 -2.77149,-8.90203 -3.39335,-10.15776 -1.48952,-3.00765 -4.38285,-5.44083 -7.08932,-5.96172 -7.21022,-1.38768 -23.23373,4.57888 -29.86421,11.12033 -2.47122,2.43808 -2.91678,3.2416 -2.91678,5.2606 0,6.67124 8.40567,15.39045 20.36005,21.11948 6.00783,2.87921 10.62224,4.19032 17.54343,4.98472 7.64749,0.87777 14.07644,4.3062 23.19541,12.36971 7.81838,6.9134 8.64877,7.01348 9.21138,1.11017 0.70107,-7.35557 1.20429,-7.85392 4.45321,-4.40978 3.13201,3.32021 7.59856,11.47227 18.5562,33.86796 5.68102,11.61111 10.87492,21.80257 11.54204,22.6477 l 1.21283,1.53661 4.22374,-2.12519 c 3.16965,-1.5948 5.68932,-3.63093 10.09587,-8.15842 5.22969,-5.37318 6.27881,-6.85372 9.58982,-13.53309 l 3.7177,-7.49987 0.2735,12.24344 c 0.23365,10.45935 0.44685,12.6079 1.46325,14.74451 1.55847,3.27623 3.0087,3.41744 6.55637,0.63843 1.5672,-1.22768 3.10628,-2.23216 3.42006,-2.23216 1.58587,0 1.21633,7.96192 -0.86263,18.58408 -1.24838,6.37825 -5.70737,20.39045 -7.9248,24.90335 -5.42442,11.03944 -15.67915,22.00821 -25.23114,26.98795 -5.0865,2.65173 -9.55372,3.63656 -12.68628,2.79672 z m -40.72527,-257.583 c 1.28695,-1.32025 1.23322,-2.09468 -0.63039,-9.08955 -2.79249,-10.48133 -5.02189,-14.04586 -10.61431,-16.971 -1.22137,-0.63886 -7.19463,-3.00903 -13.27382,-5.26704 -6.07918,-2.25802 -12.51397,-4.69836 -14.29959,-5.423 -6.18339,-2.50937 -6.50639,-1.38068 -1.80374,6.30347 7.14697,11.67835 15.94515,22.35112 21.9221,26.59296 4.5406,3.2225 9.02919,4.81237 13.63377,4.82916 2.9247,0.0106 4.37781,-0.269 5.06598,-0.975 z"
       id="path4791"
       inkscape:connector-curvature="0" />
    <path
       style="fill:#ff0000;fill-opacity:1"
       d="M 174.10092,281.34501 C 162.39029,273.26783 139.8615,247.81454 125.93256,226.92386 114.5767,209.89223 91.472623,170.56028 92.3158,169.69525 c 0.368322,-0.37787 7.70086,5.86884 16.29455,13.88156 28.54856,26.61877 71.79482,62.81606 101.34748,84.82833 l 3.05048,2.27213 -11.61331,6.33044 c -15.23208,8.30302 -20.36242,9.11828 -27.29408,4.3373 z"
       id="path4313"
       inkscape:connector-curvature="0"
       inkscape:transform-center-x="818.8496"
       inkscape:transform-center-y="280.02176" />
  </g>
</svg>
