<?xml version="1.0" encoding="UTF-8" standalone="no"?>
<!-- Created with Inkscape (http://www.inkscape.org/) -->

<svg
   xmlns:dc="http://purl.org/dc/elements/1.1/"
   xmlns:cc="http://creativecommons.org/ns#"
   xmlns:rdf="http://www.w3.org/1999/02/22-rdf-syntax-ns#"
   xmlns:svg="http://www.w3.org/2000/svg"
   xmlns="http://www.w3.org/2000/svg"
   xmlns:sodipodi="http://sodipodi.sourceforge.net/DTD/sodipodi-0.dtd"
   xmlns:inkscape="http://www.inkscape.org/namespaces/inkscape"
   width="210mm"
   height="297mm"
   viewBox="0 0 744.09448819 1052.3622047"
   id="svg4878"
   version="1.1"
   inkscape:version="0.91 r13725"
   sodipodi:docname="MSIDragonTail.svg">
  <defs
     id="defs4880" />
  <sodipodi:namedview
     id="base"
     pagecolor="#ffffff"
     bordercolor="#666666"
     borderopacity="1.0"
     inkscape:pageopacity="0.0"
     inkscape:pageshadow="2"
     inkscape:zoom="0.7"
     inkscape:cx="173.96996"
     inkscape:cy="572.67021"
     inkscape:document-units="px"
     inkscape:current-layer="layer1"
     showgrid="false"
     inkscape:window-width="1680"
     inkscape:window-height="987"
     inkscape:window-x="-8"
     inkscape:window-y="-8"
     inkscape:window-maximized="1" />
  <metadata
     id="metadata4883">
    <rdf:RDF>
      <cc:Work
         rdf:about="">
        <dc:format>image/svg+xml</dc:format>
        <dc:type
           rdf:resource="http://purl.org/dc/dcmitype/StillImage" />
        <dc:title></dc:title>
      </cc:Work>
    </rdf:RDF>
  </metadata>
  <g
     inkscape:label="Laag 1"
     inkscape:groupmode="layer"
     id="layer1">
    <path
       style="fill:#ff0000;fill-opacity:1"
       d="m 519.69815,656.08549 c -10.12741,-4.0125 -13.78762,-9.10112 -12.40999,-17.25313 0.5313,-3.14393 2.27324,-6.08485 5.24794,-8.86005 4.07035,-3.79741 5.00076,-4.09533 10.83788,-3.47034 4.2667,0.45681 10.80463,3.00245 19.7048,7.67232 10.2734,5.39042 15.12163,7.16938 21.19963,7.77889 l 7.88017,0.79014 -6.5964,3.91967 c -10.20526,6.06413 -12.25039,6.91162 -22.17652,9.19042 -11.11637,2.55204 -17.66992,2.61623 -23.68751,0.23208 z"
       id="path4299"
       inkscape:connector-curvature="0" />
    <path
       style="fill:#ff0000;fill-opacity:1"
       d="m 590.88493,438.63099 c -3.3451,-3.08304 -4.39615,-9.5485 -2.11027,-12.9812 1.60147,-2.40489 3.55441,-2.72727 20.16349,-3.32851 10.11464,-0.36614 18.62328,-0.5069 18.90798,-0.31289 1.54955,1.05596 -8.85278,10.41384 -15.97049,14.3669 -9.41461,5.22879 -16.89314,6.03246 -20.99071,2.2557 z"
       id="path4301"
       inkscape:connector-curvature="0" />
    <path
       style="fill:#ff0000;fill-opacity:1"
       d="m 594.04664,305.05101 c -1.33342,-0.86217 -2.09886,-2.97258 -2.09886,-5.78685 0,-4.02179 0.52481,-4.6762 5.69691,-7.10419 3.13325,-1.47089 6.81602,-3.04936 8.18393,-3.50769 1.36791,-0.45832 3.6617,-2.04809 5.09722,-3.5328 l 2.61013,-2.69942 0,2.78081 c 0,4.40023 -2.97282,9.65809 -8.87619,15.69876 -5.70416,5.83687 -7.13858,6.39795 -10.61314,4.15138 z"
       id="path4303"
       inkscape:connector-curvature="0" />
    <path
       style="fill:#ff0000;fill-opacity:1"
       d="m 351.47911,245.7638 c -18.06872,-2.93192 -32.6761,-8.69547 -46.79238,-18.46251 -8.73999,-6.04722 -24.56865,-22.04361 -24.56865,-24.82903 0,-0.74293 3.91289,1.03639 8.69526,3.95393 17.20572,10.49659 33.63892,12.73049 50.18959,6.82281 8.92727,-3.1866 23.5856,-13.74832 27.70269,-19.96061 6.47401,-9.76856 2.87493,-21.69388 -9.70022,-32.14118 -15.88999,-13.20119 -51.36796,-30.42136 -83.38739,-40.47417 -10.30289,-3.23467 -11.53351,-3.91535 -9.18313,-5.07961 4.16396,-2.06257 37.38807,1.19053 53.74109,5.26211 25.51385,6.35233 48.46936,17.25385 68.68381,32.61763 14.47384,11.00075 22.06354,18.91817 36.63929,38.22142 16.73049,22.1568 23.75641,33.58847 26.33704,42.852 0.80077,2.87436 0.39374,2.66919 -3.27775,-1.65238 -5.82895,-6.86103 -14.62897,-10.92635 -32.11362,-14.83544 -27.30324,-6.10435 -37.27132,-6.11882 -42.72734,-0.0619 -3.72334,4.1334 -3.66643,9.92846 0.18786,19.11988 1.65677,3.95091 2.81005,7.40787 2.56294,7.68225 -0.74113,0.82267 -19.11315,1.59388 -22.98909,0.96494 z"
       id="path4305"
       inkscape:connector-curvature="0" />
    <path
       style="fill:#ff0000;fill-opacity:1"
       d="m 212.23569,905.38186 c -2.85224,-0.73782 -13.26151,-3.91104 -23.13164,-7.05158 -16.41869,-5.22433 -19.26413,-5.71015 -33.44056,-5.71015 l -15.49482,0 0.17755,-34.90135 c 0.0977,-19.1957 -0.22403,-37.27344 -0.71494,-40.17269 l -0.89256,-5.2714 25.08025,0.10924 c 80.86314,0.35232 180.14473,-33.76614 237.69298,-81.68401 12.3289,-10.26574 38.4093,-37.9263 43.41797,-46.04859 6.4604,-10.47659 43.05723,-85.86238 55.89512,-115.13841 25.46899,-58.08056 43.20269,-116.12176 48.65126,-159.23274 2.69777,-21.34537 1.85655,-49.16734 -1.97395,-65.28715 -8.20876,-34.5444 -27.52183,-55.18454 -59.76574,-63.87245 -20.319,-5.47476 -37.8373,-6.61104 -61.41894,-3.98372 -11.49896,1.2812 -30.7181,2.73346 -42.70919,3.22733 l -21.80198,0.89801 -1.41296,3.80043 c -2.58355,6.94925 -2.80421,22.34556 -0.40081,27.96812 5.37506,12.57427 30.53724,22.58397 56.85568,22.61758 4.40503,0.007 12.06836,0.43565 17.02965,0.95564 l 9.02055,0.94543 -5.13113,2.00284 c -2.8221,1.10151 -12.07083,3.89714 -20.55275,6.21243 -42.36148,11.56328 -75.22906,11.73988 -106.30835,0.57109 -37.37128,-13.42989 -63.2191,-35.84913 -86.82817,-75.31102 -8.41509,-14.06567 -16.99627,-31.61089 -16.0009,-32.71586 0.30195,-0.33527 3.66942,4.40124 7.48319,10.52552 16.38135,26.30574 33.16655,45.17909 50.56939,56.86053 13.82056,9.27691 20.91707,11.65179 36.88433,12.34326 17.35629,0.75164 24.10399,-0.9827 30.2146,-7.76615 4.20648,-4.66958 4.42241,-5.37747 3.7017,-12.13293 -0.42343,-3.9686 -2.67398,-11.11006 -5.037,-15.98308 -4.20058,-8.66251 -4.43647,-8.87487 -14.18817,-12.76964 -17.63848,-7.04474 -28.15334,-14.11726 -39.48362,-26.55739 -15.25128,-16.74523 -22.50862,-34.55894 -24.62071,-60.43335 -0.47315,-5.79593 -0.41844,-13.68003 0.12161,-17.52025 l 0.98182,-6.98221 2.98248,12.98588 c 4.39135,19.11989 7.84341,28.38536 15.00287,40.2683 13.17951,21.87471 34.41817,37.00534 63.05153,44.91844 11.59541,3.20445 51.63295,3.16314 73.55855,-0.0759 29.10852,-4.30027 56.99206,-6.85973 83.62263,-7.6757 24.19527,-0.74142 27.61115,-0.53899 38.10638,2.2583 13.37567,3.56504 21.71595,8.21368 29.35388,16.36109 10.18458,10.86381 21.76204,33.94424 33.38021,66.54561 3.70668,10.4011 4.62446,14.93798 4.65849,23.02775 0.0402,9.54973 -0.43827,11.19937 -9.18371,31.66306 -11.39964,26.67412 -12.49043,30.76578 -17.26593,64.76536 -11.00935,78.38205 -15.67691,93.75706 -36.55846,120.42419 -28.71406,36.66993 -40.76551,66.1314 -57.44038,140.42129 -9.81153,43.71222 -12.68251,51.11814 -24.62415,63.51898 -10.18024,10.57165 -23.38717,17.95986 -45.34544,25.36693 -66.68004,22.49294 -69.72922,24.19245 -113.15536,63.07137 -30.09669,26.94512 -37.144,32.18234 -49.98079,37.14286 -11.21658,4.33446 -22.26851,5.18145 -32.63156,2.50088 z"
       id="path4847"
       inkscape:connector-curvature="0" />
    <path
       style="fill:#ff0000;fill-opacity:1"
       d="m 515.94933,653.61814 c -10.08385,-5.91012 -11.10191,-14.78118 -2.64261,-23.02638 4.12325,-4.01891 5.24049,-4.42161 9.95661,-3.58887 2.92173,0.51597 11.43808,3.86441 18.92523,7.44111 7.48714,3.5767 16.3842,6.87384 19.77124,7.32705 3.38704,0.45321 6.15825,1.33381 6.15825,1.95685 0,1.80738 -12.90537,8.25146 -21.3401,10.65584 -10.99042,3.13285 -24.76047,2.79088 -30.82862,-0.7656 z"
       id="path4853"
       inkscape:connector-curvature="0" />
    <path
       style="fill:#ff0000;fill-opacity:1"
       d="m 591.54257,438.19188 c -3.54301,-3.1848 -4.3137,-11.29191 -1.27645,-13.42614 1.01022,-0.70983 5.39502,-1.30049 9.74405,-1.31258 4.34902,-0.0122 12.51682,-0.38981 18.15065,-0.83929 l 10.24332,-0.81719 -5.1859,5.15115 c -6.38709,6.34427 -16.98531,12.31866 -23.59974,13.30352 -3.69592,0.55036 -5.75758,0.0245 -8.07593,-2.05947 z"
       id="path4855"
       inkscape:connector-curvature="0" />
    <path
       style="fill:#ff0000;fill-opacity:1"
       d="m 593.25605,303.36006 c -1.80955,-5.23491 0.13354,-8.57212 6.71736,-11.53672 3.61581,-1.62813 8.1923,-4.14858 10.17001,-5.60098 l 3.59577,-2.64084 -0.94059,3.36045 c -3.15906,11.2858 -17.23022,23.10735 -19.54255,16.41809 z"
       id="path4857"
       inkscape:connector-curvature="0" />
    <path
       style="fill:#ff0000;fill-opacity:1"
       d="m 337.9852,242.16285 c -19.01689,-5.53773 -34.178,-14.61423 -49.23895,-29.47774 -7.3444,-7.24803 -7.22506,-9.58693 0.27245,-5.34084 16.70547,9.46093 35.707,11.76348 50.25008,6.08917 9.40151,-3.66817 23.2069,-13.551 27.34712,-19.57677 4.59004,-6.68047 4.32135,-15.73309 -0.6951,-23.42066 -9.00577,-13.801 -42.91488,-32.91081 -83.67546,-47.15609 -8.55674,-2.99043 -16.14112,-6.0593 -16.85418,-6.81965 -1.95301,-2.08249 27.23842,0.097 44.06142,3.28972 18.02586,3.42105 38.12653,10.68355 53.9117,19.47861 25.35075,14.1249 38.55943,25.54252 56.94247,49.22153 12.39975,15.97193 28.53561,40.67229 28.53561,43.68157 0,0.75279 -2.87195,-0.82424 -6.38203,-3.50467 -10.24001,-7.81948 -42.53837,-16.07663 -58.87623,-15.05183 -7.85184,0.49251 -9.333,1.05151 -12.03835,4.54294 -3.73657,4.82235 -3.86194,9.69609 -0.46342,18.01045 1.41043,3.45063 2.56449,6.85081 2.56449,7.55596 0,2.38149 -26.07918,1.26875 -35.66162,-1.5217 z"
       id="path4859"
       inkscape:connector-curvature="0" />
  </g>
</svg>
