<?xml version="1.0" encoding="UTF-8" standalone="no"?>
<!-- Created with Inkscape (http://www.inkscape.org/) -->

<svg
   xmlns:dc="http://purl.org/dc/elements/1.1/"
   xmlns:cc="http://creativecommons.org/ns#"
   xmlns:rdf="http://www.w3.org/1999/02/22-rdf-syntax-ns#"
   xmlns:svg="http://www.w3.org/2000/svg"
   xmlns="http://www.w3.org/2000/svg"
   xmlns:sodipodi="http://sodipodi.sourceforge.net/DTD/sodipodi-0.dtd"
   xmlns:inkscape="http://www.inkscape.org/namespaces/inkscape"
   width="210mm"
   height="297mm"
   viewBox="0 0 744.09448819 1052.3622047"
   id="svg2"
   version="1.1"
   inkscape:version="0.91 r13725"
   sodipodi:docname="nvidia.svg">
  <defs
     id="defs4">
    <clipPath
       id="clipPath3371"
       clipPathUnits="userSpaceOnUse">
      <path
         inkscape:connector-curvature="0"
         id="path3373"
         d="M 0,792 612,792 612,0 0,0 0,792 Z" />
    </clipPath>
  </defs>
  <sodipodi:namedview
     id="base"
     pagecolor="#ffffff"
     bordercolor="#666666"
     borderopacity="1.0"
     inkscape:pageopacity="0.0"
     inkscape:pageshadow="2"
     inkscape:zoom="0.98994949"
     inkscape:cx="300.26448"
     inkscape:cy="683.88452"
     inkscape:document-units="px"
     inkscape:current-layer="layer1"
     showgrid="false"
     inkscape:window-width="1680"
     inkscape:window-height="987"
     inkscape:window-x="-8"
     inkscape:window-y="-8"
     inkscape:window-maximized="1" />
  <metadata
     id="metadata7">
    <rdf:RDF>
      <cc:Work
         rdf:about="">
        <dc:format>image/svg+xml</dc:format>
        <dc:type
           rdf:resource="http://purl.org/dc/dcmitype/StillImage" />
        <dc:title></dc:title>
      </cc:Work>
    </rdf:RDF>
  </metadata>
  <g
     inkscape:label="Laag 1"
     inkscape:groupmode="layer"
     id="layer1">
    <g
       transform="matrix(1.25,0,0,-1.25,-22.468486,961.68316)"
       inkscape:label="nvidia_geforce_claw"
       id="g3365"
       inkscape:transform-center-x="-580"
       inkscape:transform-center-y="257.14286">
      <g
         id="g3367">
        <g
           clip-path="url(#clipPath3371)"
           id="g3369">
          <g
             transform="translate(338.167,516)"
             id="g3375">
            <path
               inkscape:connector-curvature="0"
               id="path3377"
               style="fill:#4d8f20;fill-opacity:1;fill-rule:nonzero;stroke:none"
               d="m 0,0 c -51,0 -90.834,-12.658 -126.834,-30.325 -22.5,-11.166 -38,-25.166 -38,-25.166 0,0 7.167,-30.325 40.5,-74.825 26.333,-32.659 47.333,-48.659 72.5,-66.993 42.833,-29.83 78,-42.661 78,-42.661 0,0 1.667,-1.184 -28.166,20.15 -22.86,17.438 -24,19.5 -24,19.5 0,0 -2.167,6.834 -4,13.167 -59.833,40.991 -80,112.158 -80,112.158 0,0 64.333,53.485 147.333,50.985 l 3.334,8.991 c 0,0 12.5,1.833 41.667,1 C 40.5,1.481 0,0 0,0" />
          </g>
          <g
             transform="translate(413.334,475.6504)"
             id="g3379">
            <path
               inkscape:connector-curvature="0"
               id="path3381"
               style="fill:#4d8f20;fill-opacity:1;fill-rule:nonzero;stroke:none"
               d="m 0,0 c -87.833,0.666 -139.501,-52.667 -139.501,-52.667 0,0 8.668,-35.659 39.001,-65.826 -4.333,31.833 -3.833,55.5 -3.833,55.5 0,0 43.167,40.16 104.333,39.16 57.334,-0.334 92.616,-33 92.616,-33 0,0 -22.782,29.666 -58.949,47.333 0,0 3.5,4.164 7.5,5.664 0,0 -18.833,3.5 -41.167,3.836" />
          </g>
          <g
             transform="translate(160.4995,399.3257)"
             id="g3383">
            <path
               inkscape:connector-curvature="0"
               id="path3385"
               style="fill:#4d8f20;fill-opacity:1;fill-rule:nonzero;stroke:none"
               d="m 0,0 c -12.333,-7.333 -24.667,-2.5 -54.5,-14.667 38.167,-40.663 70,-64.496 119.833,-84.996 l 17.667,0 c 0,0 30.667,-6.833 64.667,-13.5 C 50.834,-76.33 0,0 0,0" />
          </g>
        </g>
      </g>
    </g>
  </g>
</svg>
